<svg width="27" height="22" viewBox="0 0 27 22" fill="none" xmlns="http://www.w3.org/2000/svg">
<path d="M11.7412 7.23226H4.85058C4.22249 7.23226 3.67261 7.65588 3.5096 8.26532L0.00966953 21.3504C-0.0377441 21.5277 0.095178 21.7019 0.277867 21.7019H7.65033C8.27783 21.7019 8.82736 21.2791 8.99091 20.6704L12.4909 7.64487C12.5563 7.40139 12.7761 7.23226 13.0271 7.23226H23.5086C24.137 7.23226 24.687 6.80824 24.8498 6.19841L26.4101 0.351288C26.4574 0.17406 26.3245 0 26.1418 0H15.1625C14.5341 0 13.9841 0.424017 13.8213 1.03385L12.2776 6.81872C12.2125 7.06265 11.9925 7.23226 11.7412 7.23226Z" fill="#381EFF"/>
<path d="M22.6806 13.5522C22.6806 16.0382 20.6747 18.0535 18.2004 18.0535C15.7261 18.0535 13.7202 16.0382 13.7202 13.5522C13.7202 11.0661 15.7261 9.05078 18.2004 9.05078C20.6747 9.05078 22.6806 11.0661 22.6806 13.5522Z" fill="#9BFA00"/>
</svg>
